<svg id="Слой_1" xmlns="http://www.w3.org/2000/svg" viewBox="0 0 74.4 16.8"><style>.st0{fill:#fff}</style><title>logo</title><path class="st0" d="M0 1.2C0 .5.5 0 1.2 0s1.2.5 1.2 1.2v14.4c0 .7-.5 1.2-1.2 1.2S0 16.3 0 15.6V1.2zm14-.9c-.5-.5-1.2-.5-1.7 0L5.2 7.5c-.5.5-.5 1.3 0 1.8l7.2 7.2c.5.5 1.2.5 1.7 0s.5-1.2 0-1.7L7.7 8.4 14 2c.5-.4.5-1.2 0-1.7zm19.3 14.5l-4.1-4.1c1.1-.2 2-.7 2.8-1.5 2.1-2.1 2.1-5.5 0-7.6-1-1-2.4-1.6-3.8-1.6h-7.8c-.7 0-1.2.5-1.2 1.2v14.4c0 .7.5 1.2 1.2 1.2s1.2-.5 1.2-1.2v-4.8h4.3l5.7 5.7c.5.5 1.2.5 1.7 0 .4-.5.4-1.3 0-1.7zM21.6 2.4h6.6c.8 0 1.6.3 2.1.9.6.6.9 1.3.9 2.1 0 1.7-1.3 3-3 3h-6.6v-6zm18 0c-.7 0-1.2-.5-1.2-1.2S38.9 0 39.6 0h12c.7 0 1.2.5 1.2 1.2s-.5 1.2-1.2 1.2h-12zm12 4.8c.7 0 1.2.5 1.2 1.2s-.5 1.2-1.2 1.2H40.8v4.8h10.8c.7 0 1.2.5 1.2 1.2s-.5 1.2-1.2 1.2h-12c-.7 0-1.2-.5-1.2-1.2V8.4c0-.7.5-1.2 1.2-1.2h12zM71.9 2c-3.4-3.2-8.7-2.9-11.9.5-3.3 3.3-3.3 8.6 0 11.9s8.6 3.3 11.9 0l.5-.5c3.1-3.5 2.9-8.8-.5-11.9zm-1.7 10.6c-1.1 1.1-2.7 1.8-4.2 1.8-1.6 0-3.1-.6-4.2-1.8-2.3-2.3-2.3-6.1 0-8.5 2.3-2.3 6.1-2.3 8.5 0 2.3 2.4 2.3 6.2-.1 8.5z"/></svg>