<svg xmlns="http://www.w3.org/2000/svg" xmlns:xlink="http://www.w3.org/1999/xlink" height="59" viewBox="0 0 59 59" width="59"><svg height="51" viewBox="0 0 51 51" width="51" x="4" y="4"><defs><clipPath id="a"><path fill="none" d="M.5.5h50v50H.5z"/></clipPath></defs><title>patern50-50</title><g data-name="Слой 2"><g data-name="Слой 1"><g data-name="&amp;lt;Группа&amp;gt;" fill="none" stroke="#fff" stroke-miterlimit="10" clip-path="url(#a)" opacity=".05"><path d="M50.5 3a2.5 2.5 0 0 1-1.77-.73A2.5 2.5 0 0 1 48 .5M.5 48a2.5 2.5 0 0 1 1.77.73A2.5 2.5 0 0 1 3 50.5M50.5 3v45M3 .5h45M.5 48V3M48 50.5H3m24.27-26.77A2.51 2.51 0 1 1 25.5 23a2.5 2.5 0 0 1 1.77.73zM3 .5a2.5 2.5 0 0 1-.73 1.77A2.5 2.5 0 0 1 .5 3M48 50.5a2.49 2.49 0 0 1 2.5-2.5M27.27 27.27l21.46 21.46M2.27 2.27l21.46 21.46m0 3.54L2.27 48.73M48.73 2.27L27.27 23.73"/></g></g></g></svg></svg>