<?xml version="1.0" encoding="UTF-8"?>
<svg width="100px" height="100px" viewBox="0 0 100 100" version="1.1" xmlns="http://www.w3.org/2000/svg" xmlns:xlink="http://www.w3.org/1999/xlink">
    <g id="Mockups" stroke="none" stroke-width="1" fill="none" fill-rule="evenodd">
        <g id="Website_Home" transform="translate(-215.000000, -1039.000000)">
            <g id="Group-12" transform="translate(0.000000, 829.000000)">
                <g id="Group-18">
                    <g id="F1" transform="translate(60.000000, 160.000000)">
                        <g id="Group-10">
                            <g id="icon_design" transform="translate(155.000000, 50.000000)">
                                <g id="icon">
                                    <circle id="Oval-2" fill="#7572CB" opacity="0.100000001" cx="50" cy="50" r="50"></circle>
                                    <g id="Group" transform="translate(34.000000, 34.000000)" fill-rule="nonzero">
                                        <path d="M19,23 C18.4477153,23 18,22.5522847 18,22 C18,21.4477153 18.4477153,21 19,21 L23,21 C23.5522847,21 24,21.4477153 24,22 C24,22.5522847 23.5522847,23 23,23 L19,23 Z" id="Path-9" fill="#A7A5DD"></path>
                                        <path d="M19,17 C18.4477153,17 18,16.5522847 18,16 C18,15.4477153 18.4477153,15 19,15 L23,15 C23.5522847,15 24,15.4477153 24,16 C24,16.5522847 23.5522847,17 23,17 L19,17 Z" id="Path-9" fill="#A7A5DD"></path>
                                        <path d="M9,11 C8.44771525,11 8,10.5522847 8,10 C8,9.44771525 8.44771525,9 9,9 L13,9 C13.5522847,9 14,9.44771525 14,10 C14,10.5522847 13.5522847,11 13,11 L9,11 Z" id="Path-9" fill="#A7A5DD"></path>
                                        <path d="M9,17 C8.44771525,17 8,16.5522847 8,16 C8,15.4477153 8.44771525,15 9,15 L13,15 C13.5522847,15 14,15.4477153 14,16 C14,16.5522847 13.5522847,17 13,17 L9,17 Z" id="Path-9" fill="#A7A5DD"></path>
                                        <path d="M18,30 C17.4477153,30 17,29.5522847 17,29 L17,9 C17,8.44771525 17.4477153,8 18,8 L26,8 C27.6568542,8 29,9.34314575 29,11 L29,29 C29,29.5522847 28.5522847,30 28,30 L18,30 Z M27,28 L27,11 C27,10.4477153 26.5522847,10 26,10 L19,10 L19,28 L27,28 Z" id="Path-8" fill="#7572CB"></path>
                                        <path d="M4,30 C3.44771525,30 3,29.5522847 3,29 L3,3 C3,1.34314575 4.34314575,2.22044605e-16 6,0 L16,0 C17.6568542,-2.22044605e-16 19,1.34314575 19,3 L19,29 C19,29.5522847 18.5522847,30 18,30 L4,30 Z M5,28 L17,28 L17,3 C17,2.44771525 16.5522847,2 16,2 L6,2 C5.44771525,2 5,2.44771525 5,3 L5,28 Z" id="Path-8" fill="#7572CB"></path>
                                        <path d="M1,30 C0.44771525,30 0,29.5522847 0,29 C0,28.4477153 0.44771525,28 1,28 L31,28 C31.5522847,28 32,28.4477153 32,29 C32,29.5522847 31.5522847,30 31,30 L1,30 Z" id="Path-9" fill="#7572CB"></path>
                                    </g>
                                </g>
                            </g>
                        </g>
                    </g>
                </g>
            </g>
        </g>
    </g>
</svg>
