<?xml version="1.0" encoding="UTF-8"?>
<svg width="100px" height="100px" viewBox="0 0 100 100" version="1.1" xmlns="http://www.w3.org/2000/svg" xmlns:xlink="http://www.w3.org/1999/xlink">
    <!-- Generator: Sketch 49.3 (51167) - http://www.bohemiancoding.com/sketch -->
    <title>icon_plan</title>
    <desc>Created with Sketch.</desc>
    <defs></defs>
    <g id="Mockups" stroke="none" stroke-width="1" fill="none" fill-rule="evenodd">
        <g id="Website_Home" transform="translate(-1125.000000, -1039.000000)">
            <g id="Group-12" transform="translate(0.000000, 829.000000)">
                <g id="Group-18">
                    <g id="F1" transform="translate(60.000000, 160.000000)">
                        <g id="Group-10-Copy-2" transform="translate(910.000000, 0.000000)">
                            <g id="icon_plan" transform="translate(155.000000, 50.000000)">
                                <g id="icon">
                                    <circle id="Oval-2" fill="#576B88" opacity="0.100000001" cx="50" cy="50" r="50"></circle>
                                    <path d="M38.1031473,41.5 L63.1031473,41.5 C63.9315745,41.5 64.6031473,40.8284271 64.6031473,40 C64.6031473,39.1715729 63.9315745,38.5 63.1031473,38.5 L38.1031473,38.5 C37.2747202,38.5 36.6031473,39.1715729 36.6031473,40 C36.6031473,40.8284271 37.2747202,41.5 38.1031473,41.5 Z M38.1031473,43.5 C36.1701507,43.5 34.6031473,41.9329966 34.6031473,40 C34.6031473,38.0670034 36.1701507,36.5 38.1031473,36.5 L63.1031473,36.5 C65.036144,36.5 66.6031473,38.0670034 66.6031473,40 C66.6031473,41.9329966 65.036144,43.5 63.1031473,43.5 L38.1031473,43.5 Z M38,61.5 L39,61.5 C39.8284271,61.5 40.5,60.8284271 40.5,60 C40.5,59.1715729 39.8284271,58.5 39,58.5 L38,58.5 C37.1715729,58.5 36.5,59.1715729 36.5,60 C36.5,60.8284271 37.1715729,61.5 38,61.5 Z M38,63.5 C36.0670034,63.5 34.5,61.9329966 34.5,60 C34.5,58.0670034 36.0670034,56.5 38,56.5 L39,56.5 C40.9329966,56.5 42.5,58.0670034 42.5,60 C42.5,61.9329966 40.9329966,63.5 39,63.5 L38,63.5 Z M49,61.5 L63,61.5 C63.8284271,61.5 64.5,60.8284271 64.5,60 C64.5,59.1715729 63.8284271,58.5 63,58.5 L49,58.5 C48.1715729,58.5 47.5,59.1715729 47.5,60 C47.5,60.8284271 48.1715729,61.5 49,61.5 Z M49,63.5 C47.0670034,63.5 45.5,61.9329966 45.5,60 C45.5,58.0670034 47.0670034,56.5 49,56.5 L63,56.5 C64.9329966,56.5 66.5,58.0670034 66.5,60 C66.5,61.9329966 64.9329966,63.5 63,63.5 L49,63.5 Z M58,51.5 L63,51.5 C63.8284271,51.5 64.5,50.8284271 64.5,50 C64.5,49.1715729 63.8284271,48.5 63,48.5 L58,48.5 C57.1715729,48.5 56.5,49.1715729 56.5,50 C56.5,50.8284271 57.1715729,51.5 58,51.5 Z M58,53.5 C56.0670034,53.5 54.5,51.9329966 54.5,50 C54.5,48.0670034 56.0670034,46.5 58,46.5 L63,46.5 C64.9329966,46.5 66.5,48.0670034 66.5,50 C66.5,51.9329966 64.9329966,53.5 63,53.5 L58,53.5 Z" id="Combined-Shape" fill="#576B88" fill-rule="nonzero"></path>
                                    <path d="M38,53.5 C36.0670034,53.5 34.5,51.9329966 34.5,50 C34.5,48.0670034 36.0670034,46.5 38,46.5 L48,46.5 C49.9329966,46.5 51.5,48.0670034 51.5,50 C51.5,51.9329966 49.9329966,53.5 48,53.5 L38,53.5 Z M38,51.5 L48,51.5 C48.8284271,51.5 49.5,50.8284271 49.5,50 C49.5,49.1715729 48.8284271,48.5 48,48.5 L38,48.5 C37.1715729,48.5 36.5,49.1715729 36.5,50 C36.5,50.8284271 37.1715729,51.5 38,51.5 Z" id="Path-8" fill="#93A0B3" fill-rule="nonzero"></path>
                                </g>
                            </g>
                        </g>
                    </g>
                </g>
            </g>
        </g>
    </g>
</svg>