<?xml version="1.0" encoding="UTF-8"?>
<svg width="100px" height="100px" viewBox="0 0 100 100" version="1.1" xmlns="http://www.w3.org/2000/svg" xmlns:xlink="http://www.w3.org/1999/xlink">
    <!-- Generator: Sketch 49.3 (51167) - http://www.bohemiancoding.com/sketch -->
    <title>icon_view</title>
    <desc>Created with Sketch.</desc>
    <defs></defs>
    <g id="Mockups" stroke="none" stroke-width="1" fill="none" fill-rule="evenodd">
        <g id="Website_Home" transform="translate(-670.000000, -1039.000000)">
            <g id="Group-12" transform="translate(0.000000, 829.000000)">
                <g id="Group-18">
                    <g id="F1" transform="translate(60.000000, 160.000000)">
                        <g id="Group-10-Copy" transform="translate(455.000000, 0.000000)">
                            <g id="icon_view" transform="translate(155.000000, 50.000000)">
                                <g id="icon">
                                    <circle id="Oval-2" fill="#5C8AE6" opacity="0.100000001" cx="50" cy="50" r="50"></circle>
                                    <g id="Group" transform="translate(31.000000, 38.000000)" fill-rule="nonzero">
                                        <g id="Group-15">
                                            <path d="M19,19 C18.4477153,19 18,18.5522847 18,18 C18,17.4477153 18.4477153,17 19,17 C21.7614237,17 24,14.7614237 24,12 C24,9.23857625 21.7614237,7 19,7 C16.2385763,7 14,9.23857625 14,12 C14,12.5522847 13.5522847,13 13,13 C12.4477153,13 12,12.5522847 12,12 C12,8.13400675 15.1340068,5 19,5 C22.8659932,5 26,8.13400675 26,12 C26,15.8659932 22.8659932,19 19,19 Z" id="Oval-2" fill="#96B4EE"></path>
                                            <path d="M19,25 C12.1940987,25 5.7508545,21.0407391 -0.319846765,13.2270586 C-0.880676764,12.5052068 -0.880698933,11.4949763 -0.319885184,10.7729909 C5.75082741,2.9592775 12.1940843,-1 19,-1 C25.8059013,-1 32.2491455,2.95926085 38.3198468,10.7729414 C38.8806768,11.4947932 38.8806989,12.5050237 38.3198852,13.2270091 C32.2491726,21.0407225 25.8059157,25 19,25 Z M19,23 C25.1056549,23 31.0158705,19.3682678 36.7404696,12.0000428 C31.0158449,4.63171648 25.1056417,1 19,1 C12.8943451,1 6.98412948,4.63173221 1.25953043,11.9999572 C6.98415506,19.3682835 12.8943583,23 19,23 Z" id="Oval" fill="#5C8AE6"></path>
                                        </g>
                                    </g>
                                </g>
                            </g>
                        </g>
                    </g>
                </g>
            </g>
        </g>
    </g>
</svg>