
<svg xmlns="http://www.w3.org/2000/svg" xml:space="preserve" width="90px" height="90px" version="1.1" shape-rendering="geometricPrecision" text-rendering="geometricPrecision" image-rendering="optimizeQuality" fill-rule="evenodd" clip-rule="evenodd"
viewBox="0 0 6.58 6.58"
 xmlns:xlink="http://www.w3.org/1999/xlink">
 <g id="Слой_x0020_1">
  <path fill="#40A7E2" fill-rule="nonzero" d="M6.48 5.96c0.14,0.14 0.14,0.37 0,0.52 -0.15,0.14 -0.38,0.14 -0.52,0l-5.23 -5.23 0 4.08 1.21 -1.2c0.14,-0.14 0.37,-0.14 0.51,0 0.15,0.14 0.15,0.37 0,0.52l-1.83 1.83c-0.06,0.06 -0.15,0.1 -0.25,0.1 -0.21,0 -0.37,-0.16 -0.37,-0.36l0 -5.85c0,-0.1 0.04,-0.19 0.11,-0.26 0.14,-0.15 0.37,-0.15 0.51,0l5.86 5.85zm-1.83 -3.51c-0.15,0.15 -0.38,0.15 -0.52,0 -0.14,-0.14 -0.14,-0.37 0,-0.51l1.83 -1.83c0.14,-0.15 0.37,-0.15 0.52,0 0.14,0.14 0.14,0.37 0,0.51l-1.83 1.83z"/>
 </g>
</svg>
