<?xml version="1.0" encoding="utf-8"?>
<!-- Generator: Adobe Illustrator 22.1.0, SVG Export Plug-In . SVG Version: 6.00 Build 0)  -->
<svg version="1.1" id="Слой_1" xmlns="http://www.w3.org/2000/svg" xmlns:xlink="http://www.w3.org/1999/xlink" x="0px" y="0px"
	 viewBox="0 0 74.4 16.8" style="enable-background:new 0 0 74.4 16.8;" xml:space="preserve">
<style type="text/css">
	.st0{fill:#FFFFFF;}
</style>
<title>logo</title>
<path class="st0" d="M0,1.2C0,0.5,0.5,0,1.2,0s1.2,0.5,1.2,1.2v14.4c0,0.7-0.5,1.2-1.2,1.2S0,16.3,0,15.6l0,0V1.2z"/>
<path class="st0" d="M14,0.3c-0.5-0.5-1.2-0.5-1.7,0L5.2,7.5c0,0,0,0,0,0C4.7,8,4.7,8.8,5.2,9.3l7.2,7.2c0.5,0.5,1.2,0.5,1.7,0
	c0.5-0.5,0.5-1.2,0-1.7L7.7,8.4L14,2C14.5,1.6,14.5,0.8,14,0.3z"/>
<path class="st0" d="M33.3,14.8l-4.1-4.1c1.1-0.2,2-0.7,2.8-1.5c0,0,0,0,0,0c2.1-2.1,2.1-5.5,0-7.6c-1-1-2.4-1.6-3.8-1.6h-7.8
	c0,0,0,0,0,0c-0.7,0-1.2,0.5-1.2,1.2v14.4c0,0.7,0.5,1.2,1.2,1.2c0.7,0,1.2-0.5,1.2-1.2v-4.8h4.3l5.7,5.7c0.5,0.5,1.2,0.5,1.7,0
	C33.7,16,33.7,15.2,33.3,14.8z M21.6,2.4h6.6c0.8,0,1.6,0.3,2.1,0.9c0.6,0.6,0.9,1.3,0.9,2.1c0,1.7-1.3,3-3,3h-6.6V2.4z"/>
<path class="st0" d="M39.6,2.4c-0.7,0-1.2-0.5-1.2-1.2S38.9,0,39.6,0h12c0.7,0,1.2,0.5,1.2,1.2s-0.5,1.2-1.2,1.2l0,0H39.6z"/>
<path class="st0" d="M51.6,7.2c0.7,0,1.2,0.5,1.2,1.2c0,0.7-0.5,1.2-1.2,1.2H40.8v4.8h10.8c0.7,0,1.2,0.5,1.2,1.2
	c0,0.7-0.5,1.2-1.2,1.2h-12c-0.7,0-1.2-0.5-1.2-1.2c0,0,0,0,0,0V8.4c0-0.7,0.5-1.2,1.2-1.2l0,0H51.6z"/>
<path class="st0" d="M71.9,2C68.5-1.2,63.2-0.9,60,2.5c-3.3,3.3-3.3,8.6,0,11.9s8.6,3.3,11.9,0h0c0.2-0.2,0.3-0.3,0.5-0.5
	C75.5,10.4,75.3,5.1,71.9,2z M70.2,12.6c-1.1,1.1-2.7,1.8-4.2,1.8c-1.6,0-3.1-0.6-4.2-1.8c-2.3-2.3-2.3-6.1,0-8.5
	c2.3-2.3,6.1-2.3,8.5,0C72.6,6.5,72.6,10.3,70.2,12.6z"/>
</svg>
