<svg xmlns="http://www.w3.org/2000/svg" width="90" height="90" shape-rendering="geometricPrecision" text-rendering="geometricPrecision" image-rendering="optimizeQuality" fill-rule="evenodd" clip-rule="evenodd" viewBox="0 0 6.58 6.58"><path fill="#40A7E2" fill-rule="nonzero" d="M6.48 5.96c.14.14.14.37 0 .52-.15.14-.38.14-.52 0L.73 1.25v4.08l1.21-1.2c.14-.14.37-.14.51 0 .15.14.15.37 0 .52L.62 6.48c-.06.06-.15.1-.25.1A.36.36 0 0 1 0 6.22V.37C0 .27.04.18.11.11c.14-.15.37-.15.51 0l5.86 5.85zM4.65 2.45c-.15.15-.38.15-.52 0a.362.362 0 0 1 0-.51L5.96.11c.14-.15.37-.15.52 0 .14.14.14.37 0 .51L4.65 2.45z"/></svg>