<svg xmlns="http://www.w3.org/2000/svg" xmlns:xlink="http://www.w3.org/1999/xlink" viewBox="0 0 51 51"><defs><clipPath id="clip-path"><rect x="0.5" y="0.5" width="50" height="50" fill="none"/></clipPath></defs><title>patern50-50</title><g id="Слой_2" data-name="Слой 2"><g id="Слой_1-2" data-name="Слой 1"><g opacity="0.05"><g clip-path="url(#clip-path)"><g id="_Группа_" data-name="&lt;Группа&gt;"><path d="M50.5,3a2.5,2.5,0,0,1-1.77-.73A2.5,2.5,0,0,1,48,.5" fill="none" stroke="#fff" stroke-miterlimit="10"/><path d="M.5,48a2.5,2.5,0,0,1,1.77.73A2.5,2.5,0,0,1,3,50.5" fill="none" stroke="#fff" stroke-miterlimit="10"/><line x1="50.5" y1="3" x2="50.5" y2="48" fill="none" stroke="#fff" stroke-miterlimit="10"/><line x1="3" y1="0.5" x2="48" y2="0.5" fill="none" stroke="#fff" stroke-miterlimit="10"/><line x1="0.5" y1="48" x2="0.5" y2="3" fill="none" stroke="#fff" stroke-miterlimit="10"/><line x1="48" y1="50.5" x2="3" y2="50.5" fill="none" stroke="#fff" stroke-miterlimit="10"/><path d="M27.27,23.73A2.51,2.51,0,1,1,25.5,23,2.5,2.5,0,0,1,27.27,23.73Z" fill="none" stroke="#fff" stroke-miterlimit="10"/><path d="M3,.5a2.5,2.5,0,0,1-.73,1.77A2.5,2.5,0,0,1,.5,3" fill="none" stroke="#fff" stroke-miterlimit="10"/><path d="M48,50.5A2.49,2.49,0,0,1,50.5,48" fill="none" stroke="#fff" stroke-miterlimit="10"/><line x1="27.27" y1="27.27" x2="48.73" y2="48.73" fill="none" stroke="#fff" stroke-miterlimit="10"/><line x1="2.27" y1="2.27" x2="23.73" y2="23.73" fill="none" stroke="#fff" stroke-miterlimit="10"/><line x1="23.73" y1="27.27" x2="2.27" y2="48.73" fill="none" stroke="#fff" stroke-miterlimit="10"/><line x1="48.73" y1="2.27" x2="27.27" y2="23.73" fill="none" stroke="#fff" stroke-miterlimit="10"/></g></g></g></g></g></svg>